<svg xmlns="http://www.w3.org/2000/svg" viewBox="0 0 96 96" fill="none">
  <circle cx="48" cy="48" r="34" fill="#f5e8ca"/>
  <path d="m48 18 25 10v20c0 17-11 25-25 32-14-7-25-15-25-32V28Z" fill="#fffaf0" stroke="#926528" stroke-width="3" stroke-linejoin="round"/>
  <path d="m48 24 19 8v16c0 13-8 20-19 26-11-6-19-13-19-26V32Z" fill="#28674b"/>
  <path d="m37 47 8 8 15-17" stroke="#fffaf0" stroke-width="5" stroke-linecap="round" stroke-linejoin="round"/>
  <path d="m16 22 2-6 2 6 6 2-6 2-2 6-2-6-6-2Z" fill="#926528"/>
  <path d="m78 66 2-5 2 5 5 2-5 2-2 5-2-5-5-2Z" fill="#926528"/>
</svg>
